<?xml version="1.0" encoding="UTF-8"?>
<svg width="512" height="512" viewBox="0 0 512 512" fill="none" xmlns="http://www.w3.org/2000/svg">
  <rect width="512" height="512" rx="128" fill="url(#gradient)"/>
  <path d="M256 96C176.5 96 112 160.5 112 240C112 296 146.5 342 192 366.5L192 416H320V366.5C365.5 342 400 296 400 240C400 160.5 335.5 96 256 96ZM256 336C203 336 160 293 160 240C160 187 203 144 256 144C309 144 352 187 352 240C352 293 309 336 256 336Z" fill="white"/>
  <path d="M224 240V192H288V240H320L256 320L192 240H224Z" fill="white"/>
  <defs>
    <linearGradient id="gradient" x1="0" y1="0" x2="512" y2="512" gradientUnits="userSpaceOnUse">
      <stop stop-color="#4F46E5"/>
      <stop offset="1" stop-color="#7C3AED"/>
    </linearGradient>
  </defs>
</svg>